<svg xmlns="http://www.w3.org/2000/svg" viewBox="0 0 1600 1200" role="img" aria-label="Illustrated in-person tarot setup">
  <defs>
    <linearGradient id="wall" x1="0" y1="0" x2="0" y2="1">
      <stop offset="0%" stop-color="#f8f4f3"/>
      <stop offset="100%" stop-color="#efe6e4"/>
    </linearGradient>
    <linearGradient id="cloth" x1="0" y1="0" x2="1" y2="1">
      <stop offset="0%" stop-color="#f6e5ea"/>
      <stop offset="100%" stop-color="#f2d9df"/>
    </linearGradient>
    <linearGradient id="card" x1="0" y1="0" x2="0" y2="1">
      <stop offset="0%" stop-color="#fffefc"/>
      <stop offset="100%" stop-color="#efe6df"/>
    </linearGradient>
  </defs>

  <rect width="1600" height="1200" fill="url(#wall)"/>
  <circle cx="1370" cy="160" r="110" fill="#f0c9d6" opacity="0.45"/>
  <circle cx="240" cy="180" r="90" fill="#d8ecf3" opacity="0.45"/>

  <rect x="70" y="460" width="1460" height="650" rx="24" fill="url(#cloth)" stroke="#d8c0c7"/>

  <g fill="#c795a7" opacity="0.35">
    <circle cx="220" cy="580" r="38"/>
    <circle cx="420" cy="640" r="26"/>
    <circle cx="620" cy="560" r="32"/>
    <circle cx="860" cy="660" r="34"/>
    <circle cx="1120" cy="570" r="30"/>
    <circle cx="1340" cy="650" r="28"/>
  </g>

  <g transform="translate(260 520)">
    <rect x="0" y="0" width="1080" height="270" rx="20" fill="#6f4555" opacity="0.12"/>
    <rect x="58" y="35" width="170" height="240" rx="16" fill="url(#card)" stroke="#bfa58e"/>
    <rect x="248" y="35" width="170" height="240" rx="16" fill="url(#card)" stroke="#bfa58e"/>
    <rect x="438" y="35" width="170" height="240" rx="16" fill="url(#card)" stroke="#bfa58e"/>
    <rect x="628" y="35" width="170" height="240" rx="16" fill="url(#card)" stroke="#bfa58e"/>
    <rect x="818" y="35" width="170" height="240" rx="16" fill="url(#card)" stroke="#bfa58e"/>
  </g>

  <g stroke="#7f5d4d" stroke-width="4" fill="none" opacity="0.85">
    <circle cx="403" cy="665" r="30"/>
    <path d="M403 637v56M375 665h56"/>
    <path d="M595 660l24-40 24 40z"/>
    <path d="M785 640h60v40h-60z"/>
    <path d="M977 640c12-20 36-20 48 0 0 20-24 36-24 36s-24-16-24-36z"/>
    <path d="M1170 646l46 20-46 20z"/>
  </g>

  <g>
    <rect x="122" y="364" width="220" height="80" rx="14" fill="#fff8f7" stroke="#dfc1bc"/>
    <text x="146" y="415" fill="#b85d7f" font-family="Arial,sans-serif" font-size="44" font-weight="700">Reading Table</text>
  </g>

  <g transform="translate(1290 520)">
    <ellipse cx="82" cy="130" rx="74" ry="24" fill="#edb774" opacity="0.35"/>
    <rect x="55" y="48" width="54" height="86" rx="18" fill="#f7efe1" stroke="#c9a785"/>
    <path d="M82 16c-14 20-10 32 0 42 10-10 14-22 0-42z" fill="#ffc579"/>
  </g>
</svg>
