<svg xmlns="http://www.w3.org/2000/svg" viewBox="0 0 1600 1200" role="img" aria-label="Illustrated paint and wine creative night setup">
  <defs>
    <linearGradient id="bg" x1="0" y1="0" x2="0" y2="1">
      <stop offset="0%" stop-color="#faf6f7"/>
      <stop offset="100%" stop-color="#f1e7ea"/>
    </linearGradient>
    <linearGradient id="frame" x1="0" y1="0" x2="1" y2="1">
      <stop offset="0%" stop-color="#b88f61"/>
      <stop offset="100%" stop-color="#8c6540"/>
    </linearGradient>
  </defs>

  <rect width="1600" height="1200" fill="url(#bg)"/>
  <rect x="0" y="880" width="1600" height="320" fill="#efe2e6"/>

  <g transform="translate(780 240)">
    <rect x="-220" y="-20" width="440" height="560" rx="18" fill="#fff9f4" stroke="#d8bca2" stroke-width="12"/>
    <rect x="-200" y="0" width="400" height="520" rx="12" fill="#fff"/>
    <path d="M-180 460c80-160 180-210 360-190" stroke="#d5678d" stroke-width="14" fill="none" stroke-linecap="round"/>
    <path d="M-160 340c120-120 240-140 320-120" stroke="#6da7d1" stroke-width="12" fill="none" stroke-linecap="round"/>
    <path d="M-120 420c140-70 220-60 290-20" stroke="#8cbf76" stroke-width="12" fill="none" stroke-linecap="round"/>
  </g>

  <g stroke="#6e5142" stroke-width="18" stroke-linecap="round">
    <path d="M560 970l220-730"/>
    <path d="M1040 970L820 240"/>
    <path d="M610 730h420"/>
    <path d="M760 970h120"/>
  </g>

  <g transform="translate(260 905)">
    <rect x="0" y="0" width="420" height="130" rx="16" fill="#f9edf0" stroke="#dcbfc7"/>
    <circle cx="70" cy="62" r="22" fill="#e16f97"/>
    <circle cx="140" cy="62" r="22" fill="#6eaed8"/>
    <circle cx="210" cy="62" r="22" fill="#90c47b"/>
    <circle cx="280" cy="62" r="22" fill="#f1be5a"/>
    <circle cx="350" cy="62" r="22" fill="#9f88cf"/>
  </g>

  <g transform="translate(1180 860)">
    <ellipse cx="110" cy="200" rx="110" ry="24" fill="#b57986" opacity="0.25"/>
    <path d="M70 34h80l-12 136H82z" fill="#f7eef3" stroke="#c6a8b2" stroke-width="8"/>
    <path d="M86 170h48c18 0 34 16 34 34H52c0-18 16-34 34-34z" fill="#7a2c49"/>
    <path d="M106 44h8v126h-8z" fill="#d1b8c0"/>
  </g>

  <text x="96" y="140" fill="#ad4f72" font-family="Arial,sans-serif" font-size="64" font-weight="700">Paint + Wine Creative Night</text>
</svg>
